<mxfile host="app.diagrams.net" modified="2023-12-06T04:03:00.779Z" agent="Mozilla/5.0 (Macintosh; Intel Mac OS X 10_15_7) AppleWebKit/537.36 (KHTML, like Gecko) Chrome/119.0.0.0 Safari/537.36" version="22.1.5" etag="XAe_zpzTRZNB8lL5jLAD" type="github">
  <diagram name="Page-1" id="whMXDPhd5R6FyN1RhxbH">
    <mxGraphModel>
      <root>
        <mxCell id="0" />
        <mxCell id="1" parent="0" />
      </root>
    </mxGraphModel>
  </diagram>
</mxfile>
